# xmcd CD database file
#
# Track frame offsets:
#	150
#	22825
#	43033
#	64785
#	80563
#	100198
#	121410
#	145384
#	165354
#	184610
#	203070
#	222059
#	239406
#	269119
#	286833
#	299912
#
# Disc length: 4274 seconds
#
# Revision: 0
# Processed by: cddbd v1.4PL0 Copyright (c) Steve Scherf et al.
# Submitted via: CDex 1.50
#
DISCID=f110b010
DTITLE=Various Artist - Margarita Caliente 13
DYEAR=2002
DGENRE=Salsa
TTITLE0=The Cuban Masters - Cachao es mambo
TTITLE1=Gerardo Rosales - Sorpresa Holandesa
TTITLE2=Martha Duarte y Sarabanda - Como me ha insulta'o
TTITLE3=Conjunto Colores - Tambo la rumba
TTITLE4=Maraca - Pura ilusión
TTITLE5=Tinguaro - Un pochito de cha cha
TTITLE6=Fruko y sus Tesos - Los caminos de la vida
TTITLE7=Gerardo Rosales - Guasacaca
TTITLE8=Joe Arroyo - El maletero
TTITLE9=Fruko y sus Tesos - La gota fria
TTITLE10=Orquesta la Clasica - La sentencia
TTITLE11=Maraca - Castigala
TTITLE12=Manilito y su trabuco - Linda melodía
TTITLE13=Fruko y sus Tesos - Descarga Fruko
TTITLE14=Gabino Pampini - El incomprendido
TTITLE15=Manolito y su trabuco - Tu me dijiste mentiras
EXTD=YEAR: 2002
EXTT0=
EXTT1=
EXTT2=
EXTT3=
EXTT4=
EXTT5=
EXTT6=
EXTT7=
EXTT8=
EXTT9=
EXTT10=
EXTT11=
EXTT12=
EXTT13=
EXTT14=
EXTT15=
PLAYORDER=
